<svg width="226" height="111" viewBox="0 0 226 111" fill="none" xmlns="http://www.w3.org/2000/svg">
<path d="M60.8934 86.7581L111.726 67.0991C112.316 66.8707 112.971 66.8728 113.56 67.105L163.452 86.764C165.594 87.608 165.578 90.6447 163.428 91.4671L113.537 110.548C112.962 110.768 112.326 110.77 111.749 110.553L60.9169 91.4726C58.747 90.6581 58.7317 87.5941 60.8934 86.7581Z" fill="#D2C9FE"/>
<path d="M121.436 62.7934L172.268 43.1344C172.859 42.906 173.514 42.9081 174.103 43.1402L223.994 62.7993C226.136 63.6433 226.121 66.68 223.97 67.5024L174.079 86.5832C173.504 86.8031 172.868 86.8051 172.292 86.5887L121.459 67.5079C119.289 66.6933 119.274 63.6294 121.436 62.7934Z" fill="#D2C9FE"/>
<path d="M60.8934 38.8288L111.726 19.1698C112.316 18.9414 112.971 18.9435 113.56 19.1756L163.452 38.8347C165.594 39.6787 165.578 42.7154 163.428 43.5378L113.537 62.6186C112.962 62.8385 112.326 62.8405 111.749 62.6241L60.9169 43.5433C58.747 42.7287 58.7317 39.6648 60.8934 38.8288Z" fill="#D2C9FE"/>
<path d="M63 48.1391V22.1735C63 11.368 73.7054 3.82449 83.881 7.45972C94.747 11.3416 102 21.6346 102 33.1732V60.8981C102 61.9224 100.985 62.6375 100.021 62.2929L63.8741 49.3796C63.3499 49.1923 63 48.6957 63 48.1391Z" fill="#FF0032"/>
<path d="M1.61268 62.7934L52.445 43.1344C53.0356 42.906 53.6905 42.9081 54.2797 43.1402L104.171 62.7993C106.313 63.6433 106.298 66.68 104.147 67.5024L54.2562 86.5832C53.681 86.8031 53.0452 86.8051 52.4686 86.5887L1.6361 67.5079C-0.53381 66.6933 -0.549029 63.6294 1.61268 62.7934Z" fill="#D2C9FE"/>
<circle cx="53" cy="43" r="17" fill="#7B91FD"/>
</svg>
