<svg width="166" height="80" viewBox="0 0 166 80" fill="none" xmlns="http://www.w3.org/2000/svg">
<path d="M1.61268 31.8288L52.445 12.1698C53.0356 11.9414 53.6905 11.9435 54.2797 12.1756L104.171 31.8347C106.313 32.6787 106.298 35.7154 104.147 36.5378L54.2562 55.6186C53.681 55.8385 53.0452 55.8405 52.4686 55.6241L1.6361 36.5433C-0.53381 35.7287 -0.549029 32.6648 1.61268 31.8288Z" fill="#D2C9FE"/>
<path d="M60.8939 55.7934L111.726 36.1344C112.317 35.906 112.972 35.9081 113.561 36.1402L163.452 55.7993C165.594 56.6433 165.579 59.68 163.428 60.5024L113.537 79.5832C112.962 79.8031 112.326 79.8051 111.75 79.5887L60.9173 60.5079C58.7474 59.6933 58.7322 56.6294 60.8939 55.7934Z" fill="#D2C9FE"/>
<circle cx="53" cy="17" r="17" fill="#7B91FD"/>
<ellipse cx="112" cy="56.5" rx="22" ry="8.5" fill="white"/>
</svg>
