<svg width="150" height="119" viewBox="0 0 150 119" fill="none" xmlns="http://www.w3.org/2000/svg">
<path d="M0.958984 78.9838V36.3924C0.958984 34.9932 2.35884 34.0265 3.66733 34.522L48.1488 51.3681C48.9262 51.6625 49.4405 52.4072 49.4405 53.2385V95.8299C49.4405 97.2291 48.0406 98.1958 46.7321 97.7003L2.25064 80.8542C1.47322 80.5598 0.958984 79.8152 0.958984 78.9838Z" fill="#FF0032"/>
<path d="M52.085 99.2579V56.6665C52.085 55.2673 53.4848 54.3005 54.7933 54.7961L99.2748 71.6421C100.052 71.9366 100.566 72.6812 100.566 73.5125V116.104C100.566 117.503 99.1666 118.47 97.8581 117.974L53.3766 101.128C52.5992 100.834 52.085 100.089 52.085 99.2579Z" fill="#FF0032"/>
<path d="M5.02506 28.0565L49.8328 10.7275C50.3534 10.5261 50.9307 10.5279 51.4501 10.7326L95.4282 28.0617C97.3163 28.8056 97.3028 31.4824 95.4074 32.2074L51.4294 49.0267C50.9223 49.2206 50.3619 49.2224 49.8536 49.0316L5.0457 32.2122C3.13297 31.4942 3.11956 28.7934 5.02506 28.0565Z" fill="#D2C9FE"/>
<path d="M57.2804 49.1809L102.088 31.8518C102.609 31.6505 103.186 31.6523 103.705 31.857L147.684 49.1861C149.572 49.93 149.558 52.6068 147.663 53.3318L103.685 70.1511C103.178 70.345 102.617 70.3467 102.109 70.156L57.3011 53.3366C55.3883 52.6186 55.3749 49.9178 57.2804 49.1809Z" fill="#D2C9FE"/>
<circle cx="50.3221" cy="14.9852" r="14.9852" fill="#7B91FD"/>
</svg>
