<svg width="212" height="96" viewBox="0 0 212 96" fill="none" xmlns="http://www.w3.org/2000/svg">
<path d="M64.8954 15.8679L105.197 0.281629C105.665 0.100531 106.185 0.102175 106.652 0.286233L146.207 15.8726C147.905 16.5418 147.893 18.9494 146.188 19.6014L106.633 34.7293C106.177 34.9037 105.673 34.9053 105.216 34.7337L64.914 19.6057C63.1936 18.96 63.1815 16.5308 64.8954 15.8679Z" fill="#D2C9FE"/>
<path d="M62.6903 20.9893L103.69 36.0668C104.477 36.3561 105 37.1055 105 37.9438V93.0597C105 94.4709 103.578 95.4383 102.265 94.9198L61.2653 78.7256C60.5017 78.424 60 77.6864 60 76.8654V22.8664C60 21.4754 61.3848 20.5092 62.6903 20.9893Z" fill="#D2C9FE"/>
<path d="M149.31 20.9893L108.31 36.0668C107.523 36.3561 107 37.1055 107 37.9438V93.0597C107 94.4709 108.422 95.4383 109.735 94.9198L150.735 78.7256C151.498 78.424 152 77.6864 152 76.8654V22.8664C152 21.4754 150.615 20.5092 149.31 20.9893Z" fill="#D2C9FE"/>
<path d="M40.3051 87.8051C41.1335 87.8051 41.8051 87.1335 41.8051 86.3051L41.8051 72.8051C41.8051 71.9767 41.1335 71.3051 40.3051 71.3051C39.4767 71.3051 38.8051 71.9767 38.8051 72.8051L38.8051 84.8051L26.8051 84.8051C25.9767 84.8051 25.3051 85.4767 25.3051 86.3051C25.3051 87.1335 25.9767 87.8051 26.8051 87.8051L40.3051 87.8051ZM41.3657 85.2444C19.6916 63.5703 19.6916 28.4297 41.3657 6.75557L39.2444 4.63425C16.3988 27.4799 16.3988 64.5201 39.2444 87.3657L41.3657 85.2444Z" fill="#FF0032"/>
<path d="M171.305 4.19491C170.477 4.19491 169.805 4.86649 169.805 5.69491L169.805 19.1949C169.805 20.0233 170.477 20.6949 171.305 20.6949C172.134 20.6949 172.805 20.0233 172.805 19.1949L172.805 7.19491L184.805 7.19491C185.634 7.19491 186.305 6.52334 186.305 5.69491C186.305 4.86649 185.634 4.19491 184.805 4.19492L171.305 4.19491ZM170.245 6.75557C191.919 28.4297 191.919 63.5703 170.245 85.2444L172.366 87.3657C195.212 64.5201 195.212 27.4799 172.366 4.63425L170.245 6.75557Z" fill="#FF0032"/>
</svg>
