<svg width="129" height="118" viewBox="0 0 129 118" fill="none" xmlns="http://www.w3.org/2000/svg">
<path d="M1.96689 68.002L63.9641 44.2056C64.6845 43.9291 65.4833 43.9316 66.2018 44.2126L127.051 68.0091C129.664 69.0307 129.645 72.7066 127.022 73.702L66.1732 96.7985C65.4716 97.0648 64.6962 97.0672 63.993 96.8052L1.99545 73.7086C-0.651057 72.7227 -0.669619 69.0139 1.96689 68.002Z" fill="#D2C9FE"/>
<circle cx="65" cy="44" r="25" fill="#7B91FD"/>
<path d="M101 20L120 1M120 1V14.5111M120 1H106.489" stroke="#FF0032" stroke-width="2"/>
<path d="M101 98L120 117M120 117V103.489M120 117H106.489" stroke="#FF0032" stroke-width="2"/>
<path d="M25 20L6 1M6 1V14.5111M6 1H19.5111" stroke="#FF0032" stroke-width="2"/>
<path d="M25 98L6 117M6 117V103.489M6 117H19.5111" stroke="#FF0032" stroke-width="2"/>
</svg>
