<svg width="226" height="92" viewBox="0 0 226 92" fill="none" xmlns="http://www.w3.org/2000/svg">
<path d="M1.61268 43.7934L52.445 24.1345C53.0356 23.9061 53.6905 23.9081 54.2797 24.1403L104.171 43.7993C106.313 44.6433 106.298 47.6801 104.147 48.5025L54.2562 67.5832C53.681 67.8032 53.0452 67.8052 52.4686 67.5887L1.6361 48.5079C-0.53381 47.6934 -0.549029 44.6295 1.61268 43.7934Z" fill="#D2C9FE"/>
<path d="M60.8934 67.758L111.726 48.0991C112.316 47.8707 112.971 47.8727 113.56 48.1049L163.452 67.7639C165.594 68.6079 165.578 71.6447 163.428 72.4671L113.537 91.5478C112.962 91.7678 112.326 91.7698 111.749 91.5533L60.9169 72.4725C58.747 71.658 58.7317 68.5941 60.8934 67.758Z" fill="#D2C9FE"/>
<path d="M121.436 43.7934L172.268 24.1345C172.859 23.9061 173.514 23.9081 174.103 24.1403L223.994 43.7993C226.136 44.6433 226.121 47.6801 223.97 48.5025L174.079 67.5832C173.504 67.8032 172.868 67.8052 172.292 67.5887L121.459 48.5079C119.289 47.6934 119.274 44.6295 121.436 43.7934Z" fill="#D2C9FE"/>
<path d="M60.8934 19.8288L111.726 0.169822C112.316 -0.058595 112.971 -0.0565222 113.56 0.17563L163.452 19.8347C165.594 20.6787 165.578 23.7154 163.428 24.5378L113.537 43.6186C112.962 43.8385 112.326 43.8405 111.749 43.6241L60.9169 24.5433C58.747 23.7287 58.7317 20.6648 60.8934 19.8288Z" fill="#D2C9FE"/>
<path d="M96 27.0035C96 20.6752 101.804 15.9382 108.004 17.2064L132.004 22.1155C136.658 23.0674 140 27.1622 140 31.9126V61.4985C140 67.8268 134.196 72.5638 127.996 71.2957L103.996 66.3866C99.342 65.4346 96 61.3398 96 56.5894V27.0035Z" fill="#DE002C"/>
<path d="M102.447 17.7665L94.2296 20.1835C94.1101 20.2187 94.0514 20.3534 94.1071 20.4649L114.5 61.251L122.418 74.1181C122.467 74.1962 122.562 74.2316 122.649 74.204L131.873 71.2913C131.95 71.2669 132.005 71.1984 132.012 71.1177L134.992 36.3479C134.997 36.2867 134.974 36.2265 134.929 36.1846L120.037 22.2858C120.013 22.263 119.983 22.2466 119.951 22.2383L102.554 17.7647C102.519 17.7557 102.482 17.7564 102.447 17.7665Z" fill="#DE002C"/>
<path d="M86 30.0035C86 23.6752 91.804 18.9382 98.004 20.2064L122.004 25.1155C126.658 26.0674 130 30.1622 130 34.9126V64.4985C130 70.8268 124.196 75.5638 117.996 74.2957L93.996 69.3866C89.342 68.4346 86 64.3398 86 59.5894V30.0035Z" fill="#FF0032"/>
</svg>
