<svg width="197" height="81" viewBox="0 0 197 81" fill="none" xmlns="http://www.w3.org/2000/svg">
<path d="M1.61268 56.7934L52.445 37.1345C53.0356 36.9061 53.6905 36.9081 54.2797 37.1403L104.171 56.7993C106.313 57.6433 106.298 60.6801 104.147 61.5025L54.2562 80.5832C53.681 80.8032 53.0452 80.8052 52.4686 80.5887L1.6361 61.5079C-0.53381 60.6934 -0.549029 57.6295 1.61268 56.7934Z" fill="#D2C9FE"/>
<path d="M92.1552 19.8288L142.987 0.169822C143.578 -0.058595 144.233 -0.0565222 144.822 0.17563L194.713 19.8347C196.855 20.6787 196.84 23.7154 194.69 24.5378L144.799 43.6186C144.223 43.8385 143.588 43.8405 143.011 43.6241L92.1786 24.5433C90.0087 23.7287 89.9935 20.6648 92.1552 19.8288Z" fill="#D2C9FE"/>
<path d="M166.984 29.4457L75.6139 66.7842C61.062 72.7309 44.8003 72.9578 30.0881 67.4195C22.4492 64.5438 22.2879 53.7966 29.8372 50.693L124.567 11.7488C138.149 6.16497 153.382 6.14496 166.979 11.6931C174.931 14.9378 174.934 26.1969 166.984 29.4457Z" fill="#FF0032"/>
<ellipse cx="52.2188" cy="58.0354" rx="23.5" ry="9" fill="white"/>
<circle cx="52.7188" cy="41.0354" r="17" fill="#7B91FD"/>
<ellipse cx="145.219" cy="20.0354" rx="23.5" ry="9" fill="white"/>
</svg>
