<svg width="141" height="128" viewBox="0 0 141 128" fill="none" xmlns="http://www.w3.org/2000/svg">
<path d="M54.8954 52.8679L95.197 37.2816C95.6653 37.1005 96.1845 37.1022 96.6516 37.2862L136.207 52.8726C137.905 53.5418 137.893 55.9494 136.188 56.6014L96.633 71.7293C96.177 71.9037 95.6729 71.9053 95.2158 71.7337L54.914 56.6057C53.1936 55.96 53.1815 53.5308 54.8954 52.8679Z" fill="#D2C9FE"/>
<path d="M4.8954 32.8679L45.197 17.2816C45.6653 17.1005 46.1845 17.1022 46.6516 17.2862L86.2071 32.8726C87.9053 33.5418 87.8932 35.9494 86.1883 36.6014L46.633 51.7293C46.177 51.9037 45.6729 51.9053 45.2158 51.7337L4.91396 36.6057C3.19359 35.96 3.18152 33.5308 4.8954 32.8679Z" fill="#D2C9FE"/>
<path d="M0 40.8599V89.378C0 90.2064 0.510706 90.949 1.28425 91.2455L42.2842 106.959C43.5939 107.461 45 106.494 45 105.092V55.838C45 54.9981 44.4752 54.2477 43.6863 53.9594L2.68628 38.9813C1.38143 38.5047 0 39.4707 0 40.8599Z" fill="#FF0032"/>
<path d="M49 60.8599V109.378C49 110.206 49.5107 110.949 50.2842 111.246L91.2842 126.959C92.5939 127.461 94 126.494 94 125.092V75.838C94 74.9981 93.4752 74.2477 92.6863 73.9594L51.6863 58.9813C50.3814 58.5047 49 59.4707 49 60.8599Z" fill="#FF0032"/>
<circle cx="45" cy="17" r="17" fill="#7B91FD"/>
</svg>
