<svg width="226" height="92" viewBox="0 0 226 92" fill="none" xmlns="http://www.w3.org/2000/svg">
<path d="M1.61268 43.7934L52.445 24.1345C53.0356 23.906 53.6905 23.9081 54.2797 24.1403L104.171 43.7993C106.313 44.6433 106.298 47.68 104.147 48.5024L54.2562 67.5832C53.681 67.8032 53.0452 67.8051 52.4686 67.5887L1.6361 48.5079C-0.53381 47.6934 -0.549029 44.6294 1.61268 43.7934Z" fill="#D2C9FE"/>
<path d="M60.8937 67.7581L111.726 48.0991C112.317 47.8707 112.972 47.8728 113.561 48.1049L163.452 67.764C165.594 68.608 165.579 71.6447 163.428 72.4671L113.537 91.5478C112.962 91.7678 112.326 91.7698 111.75 91.5534L60.9171 72.4725C58.7472 71.658 58.732 68.5941 60.8937 67.7581Z" fill="#D2C9FE"/>
<path d="M121.436 43.7934L172.268 24.1345C172.859 23.906 173.514 23.9081 174.103 24.1403L223.994 43.7993C226.136 44.6433 226.121 47.68 223.97 48.5024L174.079 67.5832C173.504 67.8032 172.868 67.8051 172.292 67.5887L121.459 48.5079C119.289 47.6934 119.274 44.6294 121.436 43.7934Z" fill="#D2C9FE"/>
<path d="M60.8937 19.8288L111.726 0.169822C112.317 -0.058595 112.972 -0.0565222 113.561 0.17563L163.452 19.8347C165.594 20.6787 165.579 23.7154 163.428 24.5378L113.537 43.6186C112.962 43.8385 112.326 43.8405 111.75 43.6241L60.9171 24.5433C58.7472 23.7287 58.732 20.6648 60.8937 19.8288Z" fill="#D2C9FE"/>
<circle cx="112.5" cy="46.5" r="28.5" fill="#7B91FD"/>
</svg>
