<svg width="282" height="137" viewBox="0 0 282 137" fill="none" xmlns="http://www.w3.org/2000/svg">
<path d="M2.75086 54.2926L89.4591 20.7589C90.4665 20.3693 91.5837 20.3728 92.5887 20.7688L177.692 54.3026C181.345 55.7423 181.319 60.9222 177.651 62.3251L92.5486 94.8724C91.5674 95.2477 90.4829 95.251 89.4994 94.8819L2.7908 62.3344C-0.910556 60.945 -0.936516 55.7186 2.75086 54.2926Z" fill="#D2C9FE"/>
<path d="M103.871 95.1707L190.579 61.637C191.587 61.2474 192.704 61.2509 193.709 61.6469L278.812 95.1807C282.466 96.6204 282.439 101.8 278.771 103.203L193.669 135.751C192.688 136.126 191.603 136.129 190.62 135.76L103.911 103.212C100.21 101.823 100.184 96.5967 103.871 95.1707Z" fill="#D2C9FE"/>
<circle cx="90.406" cy="28.9981" r="28.9981" fill="#7B91FD"/>
<ellipse cx="191.046" cy="96.376" rx="37.5269" ry="14.499" fill="white"/>
</svg>
