<svg width="282" height="139" viewBox="0 0 282 139" fill="none" xmlns="http://www.w3.org/2000/svg">
<path d="M76.1194 108.61L139.662 84.0351C140.4 83.7496 141.219 83.7522 141.956 84.0424L204.322 108.617C206.999 109.672 206.98 113.468 204.292 114.496L141.926 138.348C141.207 138.623 140.412 138.625 139.692 138.355L76.1487 114.503C73.4362 113.485 73.4172 109.655 76.1194 108.61Z" fill="#D2C9FE"/>
<path d="M151.801 78.6529L215.343 54.0783C216.082 53.7928 216.9 53.7954 217.637 54.0856L280.003 78.6603C282.68 79.7153 282.661 83.5113 279.973 84.5394L217.607 108.391C216.888 108.666 216.094 108.669 215.373 108.398L151.83 84.5462C149.117 83.528 149.098 79.698 151.801 78.6529Z" fill="#D2C9FE"/>
<path d="M76.1194 48.696L139.662 24.1214C140.4 23.8359 141.219 23.8385 141.956 24.1287L204.322 48.7034C206.999 49.7584 206.98 53.5544 204.292 54.5825L141.926 78.4343C141.207 78.7093 140.412 78.7117 139.692 78.4412L76.1487 54.5893C73.4362 53.5711 73.4172 49.7411 76.1194 48.696Z" fill="#D2C9FE"/>
<path d="M78.7529 60.3342V27.8762C78.7529 14.3688 92.1352 4.93904 104.855 9.48325C118.438 14.3357 127.505 27.2025 127.505 41.6262V76.2836C127.505 77.564 126.236 78.4579 125.03 78.0271L79.8456 61.885C79.1903 61.6509 78.7529 61.0301 78.7529 60.3342Z" fill="#FF0032"/>
<path d="M2.01592 78.6529L65.5586 54.0783C66.2969 53.7928 67.1156 53.7954 67.852 54.0856L130.218 78.6603C132.896 79.7153 132.877 83.5113 130.189 84.5394L67.8227 108.391C67.1037 108.666 66.3089 108.669 65.5881 108.398L2.04519 84.5462C-0.667286 83.528 -0.68631 79.698 2.01592 78.6529Z" fill="#D2C9FE"/>
<circle cx="66" cy="55" r="31" fill="#7B91FD"/>
</svg>
